# xmcd
#
# Track frame offsets: 
#        150
#        11980
#        24475
#        34820
#        46422
#        63892
#        76525
#        86392
#        97050
#        110152
#        124925
#        138740
#        154857
#        165697
#        172155
#        183612
#        197662
#        207960
#        219027
#        230897
#
# Disc length: 3205 seconds
#
# Revision: 0
# Processed by: cddbd v1.5.1PL0 Copyright (c) Steve Scherf et al.
# Submitted via: ExactAudioCopy v0.95a5
#
DISCID=1c0c8314
DTITLE=Various Artist - Country Love Songs
DYEAR=1997
DGENRE=Country
TTITLE0=Don Gibson - I Can't Stop Loving You
TTITLE1=Hank Williams - Lovesick Blues
TTITLE2=Wanda Jackson - It's Only Make Believe
TTITLE3=Patsy Cline - I've Loved And Lost Again
TTITLE4=Don Williams - I Believe In You
TTITLE5=Charley Pride - Help Me Make It Through The Night
TTITLE6=Dolly Parton - Please Release Me
TTITLE7=Slim Whitman - Rose Marie
TTITLE8=Wanda Jackson - I Fall To Pieces
TTITLE9=Don Gibson - Sweet Dreams
TTITLE10=Don Williams - You're My Best Friend
TTITLE11=Merle Haggard - Today I Started Loving You Again
TTITLE12=Patsy Cline - I Cried All The Way To The Altar
TTITLE13=Jim Reeves - Heve I Told Tou Lately That I Love Tou ?
TTITLE14=Kitty Wells - Heartbreak USA
TTITLE15=George Jones - Cold Cold Heart
TTITLE16=Frankie Laine - I Believe
TTITLE17=Patsy Cline - A Stranger In My Arms
TTITLE18=Hank Williams - I'm So Lonesome I Could Cry
TTITLE19=Charley Pride - Kiss An Angel Good Morning
EXTD=
EXTT0=
EXTT1=
EXTT2=
EXTT3=
EXTT4=
EXTT5=
EXTT6=
EXTT7=
EXTT8=
EXTT9=
EXTT10=
EXTT11=
EXTT12=
EXTT13=
EXTT14=
EXTT15=
EXTT16=
EXTT17=
EXTT18=
EXTT19=
PLAYORDER=
